<svg width="24" height="24" viewBox="0 0 24 24" fill="none" xmlns="http://www.w3.org/2000/svg">
<path d="M7.00614 15.2C6.99936 15.0897 7.08954 15 7.2 15H8.8C8.91046 15 8.99847 15.0901 9.01559 15.1992C9.17122 16.1908 10.4713 17 12 17C13.63 17 15 16.08 15 15C15 13.9 13.96 13.5 11.76 12.97C9.64 12.44 7 11.78 7 9C7 7.25466 8.39756 5.76602 10.3491 5.22005C10.4374 5.19535 10.5 5.11572 10.5 5.02403V3.2C10.5 3.08954 10.5895 3 10.7 3H13.3C13.4105 3 13.5 3.08954 13.5 3.2V5.02403C13.5 5.11572 13.5626 5.19535 13.6509 5.22005C15.5275 5.74504 16.8918 7.14167 16.9939 8.80001C17.0006 8.91026 16.9105 9 16.8 9H15.2C15.0895 9 15.0015 8.90988 14.9844 8.80076C14.8288 7.80925 13.5287 7 12 7C10.37 7 9 7.92 9 9C9 10.1 10.04 10.5 12.24 11.03C14.36 11.56 17 12.22 17 15C17 16.7453 15.6024 18.234 13.6509 18.78C13.5626 18.8047 13.5 18.8843 13.5 18.976V20.8C13.5 20.9105 13.4105 21 13.3 21H10.7C10.5895 21 10.5 20.9105 10.5 20.8V18.976C10.5 18.8843 10.4374 18.8047 10.3491 18.78C8.47254 18.255 7.1082 16.8583 7.00614 15.2Z" fill="white"/>
</svg>
