<svg width="24" height="24" viewBox="0 0 24 24" fill="none" xmlns="http://www.w3.org/2000/svg">
<path fill-rule="evenodd" clip-rule="evenodd" d="M4.11993 11.0348C3.73925 11.3949 3.60039 11.7213 3.60039 12.0003C3.60039 12.2792 3.73925 12.6057 4.11993 12.9657C4.50188 13.327 5.08677 13.6799 5.85928 13.9889C7.40095 14.6056 9.5719 15.0005 12.0004 15.0005C14.4289 15.0005 16.5998 14.6056 18.1415 13.9889C18.914 13.6799 19.4989 13.327 19.8808 12.9657C20.2615 12.6057 20.4004 12.2792 20.4004 12.0003C20.4004 11.7213 20.2615 11.3949 19.8808 11.0348C19.4989 10.6736 18.914 10.3206 18.1415 10.0116C16.5998 9.3949 14.4289 9.00005 12.0004 9.00005C9.5719 9.00005 7.40095 9.3949 5.85928 10.0116C5.08677 10.3206 4.50188 10.6736 4.11993 11.0348ZM5.41358 8.89745C7.12927 8.21113 9.45831 7.80005 12.0004 7.80005C14.5425 7.80005 16.8715 8.21113 18.5872 8.89745C19.4434 9.23994 20.1765 9.66277 20.7054 10.163C21.2356 10.6644 21.6004 11.2851 21.6004 12.0003C21.6004 12.7155 21.2356 13.3361 20.7054 13.8376C20.1765 14.3378 19.4434 14.7606 18.5872 15.1031C16.8715 15.7894 14.5425 16.2005 12.0004 16.2005C9.45831 16.2005 7.12927 15.7894 5.41358 15.1031C4.55741 14.7606 3.82428 14.3378 3.29538 13.8376C2.76521 13.3361 2.40039 12.7155 2.40039 12.0003C2.40039 11.2851 2.76521 10.6644 3.29538 10.163C3.82428 9.66277 4.55741 9.23994 5.41358 8.89745Z" fill="white"/>
<path fill-rule="evenodd" clip-rule="evenodd" d="M10.0123 5.85902C9.39561 7.40078 9.00078 9.57185 9.00078 12.0005C9.00078 14.4291 9.39561 16.6001 10.0123 18.1419C10.3213 18.9145 10.6742 19.4994 11.0354 19.8814C11.3955 20.2621 11.7219 20.4009 12.0008 20.4009C12.2797 20.4009 12.6061 20.2621 12.9661 19.8814C13.3273 19.4994 13.6803 18.9145 13.9893 18.1419C14.606 16.6001 15.0008 14.4291 15.0008 12.0005C15.0008 9.57185 14.606 7.40078 13.9893 5.85902C13.6803 5.08647 13.3273 4.50155 12.9661 4.11958C12.6061 3.73887 12.2797 3.60002 12.0008 3.60002C11.7219 3.60002 11.3955 3.73887 11.0354 4.11958C10.6742 4.50155 10.3213 5.08647 10.0123 5.85902ZM10.1636 3.29507C10.6649 2.76488 11.2856 2.40002 12.0008 2.40002C12.716 2.40002 13.3366 2.76488 13.838 3.29507C14.3382 3.82399 14.761 4.55715 15.1035 5.41337C15.7897 7.12912 16.2008 9.45827 16.2008 12.0005C16.2008 14.5427 15.7897 16.8718 15.1035 18.5876C14.761 19.4438 14.3382 20.1769 13.838 20.7059C13.3366 21.236 12.716 21.6009 12.0008 21.6009C11.2856 21.6009 10.6649 21.236 10.1636 20.7059C9.66337 20.1769 9.24058 19.4438 8.89811 18.5876C8.21184 16.8718 7.80078 14.5427 7.80078 12.0005C7.80078 9.45827 8.21184 7.12912 8.89811 5.41337C9.24058 4.55715 9.66337 3.82399 10.1636 3.29507Z" fill="white"/>
<path fill-rule="evenodd" clip-rule="evenodd" d="M12.0004 3.60002C7.36123 3.60002 3.60039 7.361 3.60039 12.0005C3.60039 16.6399 7.36123 20.4009 12.0004 20.4009C16.6396 20.4009 20.4004 16.6399 20.4004 12.0005C20.4004 7.361 16.6396 3.60002 12.0004 3.60002ZM2.40039 12.0005C2.40039 6.69832 6.69843 2.40002 12.0004 2.40002C17.3024 2.40002 21.6004 6.69832 21.6004 12.0005C21.6004 17.3026 17.3024 21.6009 12.0004 21.6009C6.69843 21.6009 2.40039 17.3026 2.40039 12.0005Z" fill="white"/>
</svg>
