<svg width="24" height="24" viewBox="0 0 24 24" fill="none" xmlns="http://www.w3.org/2000/svg">
<path d="M9.8 20C9.91046 20 10 19.9105 10 19.8V14.2C10 14.0895 10.0895 14 10.2 14H13.8C13.9105 14 14 14.0895 14 14.2V19.8C14 19.9105 14.0895 20 14.2 20H18.8C18.9105 20 19 19.9105 19 19.8V12.2C19 12.0895 19.0895 12 19.2 12H21.4788C21.6621 12 21.7488 11.774 21.6126 11.6513L12.1338 3.12041C12.0577 3.05196 11.9423 3.05196 11.8662 3.12041L2.3874 11.6513C2.25116 11.774 2.33789 12 2.52119 12H4.8C4.91046 12 5 12.0895 5 12.2V19.8C5 19.9105 5.08954 20 5.2 20H9.8Z" fill="white"/>
</svg>
