<svg width="16" height="16" viewBox="0 0 16 16" fill="none" xmlns="http://www.w3.org/2000/svg">
<path d="M7.99935 11.3333C8.35297 11.3333 8.69211 11.1928 8.94216 10.9428C9.19221 10.6927 9.33268 10.3536 9.33268 9.99996C9.33268 9.25996 8.73268 8.66663 7.99935 8.66663C7.64573 8.66663 7.30659 8.8071 7.05654 9.05715C6.80649 9.3072 6.66602 9.64634 6.66602 9.99996C6.66602 10.3536 6.80649 10.6927 7.05654 10.9428C7.30659 11.1928 7.64573 11.3333 7.99935 11.3333ZM11.9993 5.33329C12.353 5.33329 12.6921 5.47377 12.9422 5.72382C13.1922 5.97387 13.3327 6.313 13.3327 6.66663V13.3333C13.3327 13.6869 13.1922 14.0261 12.9422 14.2761C12.6921 14.5262 12.353 14.6666 11.9993 14.6666H3.99935C3.64573 14.6666 3.30659 14.5262 3.05654 14.2761C2.80649 14.0261 2.66602 13.6869 2.66602 13.3333V6.66663C2.66602 5.92663 3.26602 5.33329 3.99935 5.33329H4.66602V3.99996C4.66602 3.1159 5.0172 2.26806 5.64233 1.64294C6.26745 1.01782 7.11529 0.666626 7.99935 0.666626C8.43709 0.666626 8.87054 0.752845 9.27496 0.920361C9.67938 1.08788 10.0468 1.33341 10.3564 1.64294C10.6659 1.95247 10.9114 2.31993 11.0789 2.72435C11.2465 3.12877 11.3327 3.56222 11.3327 3.99996V5.33329H11.9993ZM7.99935 1.99996C7.46892 1.99996 6.96021 2.21067 6.58513 2.58575C6.21006 2.96082 5.99935 3.46953 5.99935 3.99996V5.33329H9.99935V3.99996C9.99935 3.46953 9.78864 2.96082 9.41356 2.58575C9.03849 2.21067 8.52978 1.99996 7.99935 1.99996Z" fill="white" fill-opacity="0.5"/>
</svg>
