<svg width="24" height="24" viewBox="0 0 24 24" fill="none" xmlns="http://www.w3.org/2000/svg">
<path d="M12 6V8.51716C12 8.69534 12.2154 8.78457 12.3414 8.65858L15.8586 5.14142C15.9367 5.06332 15.9367 4.93668 15.8586 4.85858L12.3414 1.34142C12.2154 1.21543 12 1.30466 12 1.48284V4C7.58 4 4 7.58 4 12C4 13.4804 4.40897 14.8629 5.10954 16.0471C5.17476 16.1573 5.32602 16.174 5.41658 16.0834L6.59446 14.9055C6.65707 14.8429 6.67074 14.7468 6.63061 14.6679C6.22438 13.8688 6 12.9568 6 12C6 8.69 8.69 6 12 6ZM18.8905 7.95292C18.8252 7.84269 18.674 7.82602 18.5834 7.91658L17.404 9.09603C17.3421 9.15788 17.3279 9.25261 17.3667 9.33102C17.7662 10.1383 18 11.0422 18 12C18 15.31 15.31 18 12 18V15.4828C12 15.3047 11.7846 15.2154 11.6586 15.3414L8.14142 18.8586C8.06332 18.9367 8.06332 19.0633 8.14142 19.1414L11.6586 22.6586C11.7846 22.7846 12 22.6953 12 22.5172V20C16.42 20 20 16.42 20 12C20 10.5196 19.591 9.13709 18.8905 7.95292Z" fill="white"/>
</svg>
