<svg width="24" height="24" viewBox="0 0 24 24" fill="none" xmlns="http://www.w3.org/2000/svg">
<path fill-rule="evenodd" clip-rule="evenodd" d="M17.5602 1.49618C17.8385 1.21792 18.2896 1.21791 18.5679 1.49614L22.5036 5.43161C22.6374 5.56537 22.7125 5.74682 22.7123 5.93598C22.7122 6.12515 22.6368 6.30649 22.5028 6.44004L18.5671 10.3636C18.2884 10.6414 17.8373 10.6407 17.5595 10.362C17.2817 10.0833 17.2824 9.6322 17.561 9.35439L20.9914 5.93468L17.5603 2.50381C17.282 2.22557 17.282 1.77444 17.5602 1.49618Z" fill="white"/>
<path fill-rule="evenodd" clip-rule="evenodd" d="M2.28711 5.93406C2.28711 5.54055 2.60611 5.22156 2.99961 5.22156H21.9996C22.3931 5.22156 22.7121 5.54055 22.7121 5.93406C22.7121 6.32756 22.3931 6.64656 21.9996 6.64656H2.99961C2.60611 6.64656 2.28711 6.32756 2.28711 5.93406Z" fill="white"/>
<path fill-rule="evenodd" clip-rule="evenodd" d="M7.44008 12.6394C7.71782 12.9182 7.71701 13.3693 7.43826 13.647L4.00812 17.0648L7.43919 20.4962C7.71743 20.7745 7.71741 21.2256 7.43915 21.5038C7.16088 21.7821 6.70975 21.782 6.43152 21.5038L2.49577 17.5677C2.362 17.4339 2.28693 17.2524 2.28711 17.0632C2.28729 16.874 2.36269 16.6927 2.49671 16.5591L6.43245 12.6376C6.71121 12.3598 7.16233 12.3607 7.44008 12.6394Z" fill="white"/>
<path fill-rule="evenodd" clip-rule="evenodd" d="M2.28711 17.0659C2.28711 16.6724 2.60611 16.3534 2.99961 16.3534H21.9996C22.3931 16.3534 22.7121 16.6724 22.7121 17.0659C22.7121 17.4594 22.3931 17.7784 21.9996 17.7784H2.99961C2.60611 17.7784 2.28711 17.4594 2.28711 17.0659Z" fill="white"/>
</svg>
