<svg width="24" height="24" fill="none" xmlns="http://www.w3.org/2000/svg"><path d="M12 3a9 9 0 019 9 9 9 0 11-9-9z" fill="#F5AC37"/><path d="M12.329 12.631h3.42c.072 0 .107 0 .112-.095a6.549 6.549 0 000-1.046c0-.068-.034-.096-.107-.096H8.948c-.084 0-.107.028-.107.107v1.001c0 .13 0 .13.135.13h3.353zm3.15-2.407a.109.109 0 000-.079 2.223 2.223 0 00-.203-.354 2.87 2.87 0 00-.416-.523 1.38 1.38 0 00-.26-.253 4.043 4.043 0 00-1.687-.855 4.195 4.195 0 00-.956-.102h-3.02c-.085 0-.096.034-.096.107v1.997c0 .084 0 .107.107.107h6.49s.057-.011.068-.045h-.027zm0 3.577a1.316 1.316 0 00-.287 0H8.954c-.084 0-.113 0-.113.113v1.952c0 .09 0 .113.113.113h2.88c.138.01.275 0 .41-.028.418-.03.83-.121 1.221-.27.143-.05.28-.114.41-.192h.04a3.655 3.655 0 001.57-1.58s.038-.085-.006-.107zm-7.768 3.19V13.88c0-.073 0-.084-.09-.084H6.4c-.068 0-.096 0-.096-.09v-1.069H7.61c.073 0 .1 0 .1-.095v-1.058c0-.067 0-.084-.09-.084H6.4c-.067 0-.095 0-.095-.09v-.99c0-.062 0-.078.09-.078h1.209c.084 0 .107 0 .107-.107V7.103c0-.09 0-.113.112-.113h4.219c.306.013.61.046.911.102.62.114 1.216.336 1.76.652.362.213.695.47.99.765.223.231.424.482.602.748.177.27.325.56.44.86.014.08.09.132.168.12h1.007c.129 0 .129 0 .135.123v.923c0 .09-.034.112-.124.112h-.777c-.078 0-.1 0-.095.101.03.343.03.687 0 1.03 0 .095 0 .107.107.107h.888c.04.05 0 .1 0 .152a1.07 1.07 0 010 .196v.681c0 .096-.028.124-.112.124h-1.064a.14.14 0 00-.163.107 4.497 4.497 0 01-1.181 1.721 6.78 6.78 0 01-.602.484c-.225.13-.444.264-.675.371-.425.191-.87.332-1.328.422a6.923 6.923 0 01-1.316.107H7.71v-.006l.002-.001z" fill="#FEFEFD"/><circle cx="12" cy="12" r="11.25" stroke="url(#paint0_linear)" stroke-width="1.5"/><defs><linearGradient id="paint0_linear" x1="19.5" y1="2" x2="5.5" y2="24" gradientUnits="userSpaceOnUse"><stop stop-color="#B3529F"/><stop offset="1" stop-color="#2FB9C6"/></linearGradient></defs></svg>