<svg width="23" height="24" fill="none" xmlns="http://www.w3.org/2000/svg"><path d="M14.225 10.996l1.761-2.99 4.751 7.398.002 1.42-.015-9.771a.738.738 0 00-.34-.587L11.83 1.547a.748.748 0 00-.73.048l-.029.019-8.302 4.811-.032.014a.735.735 0 00-.43.624l.014 7.963 4.425-6.858c.557-.91 1.77-1.203 2.897-1.187l1.322.034L3.173 19.51l.918.529 7.886-13.012 3.486-.012-7.866 13.34 3.279 1.886.392.226a.76.76 0 00.528.01l8.673-5.026-1.66.961-4.584-7.415zm.672 9.684l-3.311-5.196 2.02-3.429 4.347 6.853-3.056 1.772z" fill="#2D374B"/><path d="M11.586 15.484l3.311 5.196 3.058-1.772-4.347-6.851-2.022 3.427zm9.154 1.339l-.002-1.42-4.752-7.398-1.763 2.99 4.585 7.417 1.66-.961a.736.736 0 00.271-.535v-.093z" fill="#28A0F0"/><path d="M.833 18.162l2.342 1.35 7.792-12.495-1.322-.034c-1.127-.016-2.34.277-2.897 1.186l-4.425 6.858-1.488 2.287-.002.848zm14.63-11.145l-3.486.012L4.091 20.04l2.757 1.587.75-1.27 7.865-13.34z" fill="#fff"/><path d="M22.208 6.998a2.22 2.22 0 00-1.041-1.784L12.503.232a2.254 2.254 0 00-1.988 0C10.443.268 2.09 5.113 2.09 5.113A2.209 2.209 0 00.834 6.994v10.32l1.487-2.287-.012-7.96a.742.742 0 01.307-.555c.039-.029 8.536-4.946 8.563-4.96.205-.1.446-.1.653-.003l8.553 4.92a.738.738 0 01.34.587v9.863a.719.719 0 01-.254.535l-1.66.962-.854.495-3.058 1.772-3.101 1.798a.76.76 0 01-.528-.01L7.6 20.36l-.75 1.27 3.298 1.898c.11.062.207.116.286.163.123.068.207.116.238.13a2.204 2.204 0 001.682.027l9.008-5.216c.515-.4.825-1.008.849-1.66l-.004-9.975z" fill="#96BEDC"/></svg>