<svg width="24" height="24" fill="none" xmlns="http://www.w3.org/2000/svg"><path d="M12 21a9 9 0 100-17.999A9 9 0 0012 21z" fill="#26A17B"/><path d="M13.018 12.807v-.002c-.062.005-.384.024-1.098.024-.572 0-.973-.016-1.114-.024v.002c-2.198-.097-3.838-.48-3.838-.938 0-.457 1.641-.84 3.838-.937v1.494c.143.01.555.035 1.124.035.683 0 1.024-.029 1.088-.035v-1.493c2.193.098 3.828.48 3.828.938 0 .457-1.636.839-3.828.937v-.001zm0-2.029V9.441h3.06V7.403H7.747V9.44h3.06v1.337c-2.487.115-4.357.607-4.357 1.197 0 .59 1.871 1.082 4.357 1.198v4.286h2.212v-4.286c2.483-.114 4.35-.606 4.35-1.197 0-.589-1.867-1.082-4.35-1.196" fill="#fff"/><circle cx="12" cy="12" r="11.25" stroke="url(#paint0_linear)" stroke-width="1.5"/><defs><linearGradient id="paint0_linear" x1="19.5" y1="2" x2="5.5" y2="24" gradientUnits="userSpaceOnUse"><stop stop-color="#B3529F"/><stop offset="1" stop-color="#2FB9C6"/></linearGradient></defs></svg>