<svg width="24" height="24" fill="none" xmlns="http://www.w3.org/2000/svg"><path d="M12 21c4.988 0 9-4.012 9-9s-4.012-9-9-9-9 4.012-9 9 4.012 9 9 9z" fill="#2775CA"/><path d="M14.475 13.425c0-1.313-.787-1.763-2.362-1.95-1.125-.15-1.35-.45-1.35-.975 0-.525.375-.863 1.125-.863.675 0 1.05.225 1.237.788.038.112.15.187.263.187h.6c.15 0 .262-.112.262-.262v-.038a1.873 1.873 0 00-1.687-1.537v-.9c0-.15-.113-.263-.3-.3H11.7c-.15 0-.262.112-.3.3v.862c-1.125.15-1.837.9-1.837 1.838 0 1.238.75 1.725 2.325 1.913 1.05.187 1.387.412 1.387 1.012 0 .6-.525 1.012-1.237 1.012-.975 0-1.313-.412-1.425-.975-.038-.15-.15-.225-.263-.225h-.637a.256.256 0 00-.263.263v.038c.15.937.75 1.612 1.988 1.8v.9c0 .15.112.262.3.3h.562c.15 0 .263-.113.3-.3v-.9c1.125-.188 1.875-.976 1.875-1.988z" fill="#fff"/><path d="M10.088 17.363c-2.925-1.05-4.425-4.313-3.338-7.2a5.547 5.547 0 013.338-3.338c.15-.075.225-.187.225-.375v-.525c0-.15-.075-.263-.225-.3-.038 0-.113 0-.15.037-3.563 1.125-5.513 4.913-4.388 8.476a6.746 6.746 0 004.388 4.387c.15.075.3 0 .337-.15.038-.037.038-.075.038-.15V17.7c0-.113-.113-.262-.225-.337zm3.975-11.7c-.15-.075-.3 0-.338.15-.037.037-.037.075-.037.15v.525c0 .15.112.3.225.375 2.925 1.05 4.425 4.312 3.337 7.2a5.547 5.547 0 01-3.337 3.337c-.15.075-.225.188-.225.375v.525c0 .15.075.263.225.3.037 0 .112 0 .15-.037 3.562-1.125 5.512-4.913 4.387-8.475a6.801 6.801 0 00-4.387-4.425z" fill="#fff"/><circle cx="12" cy="12" r="11.25" stroke="url(#paint0_linear)" stroke-width="1.5"/><defs><linearGradient id="paint0_linear" x1="19.5" y1="2" x2="5.5" y2="24" gradientUnits="userSpaceOnUse"><stop stop-color="#B3529F"/><stop offset="1" stop-color="#2FB9C6"/></linearGradient></defs></svg>