<svg width="24" height="24" fill="none" xmlns="http://www.w3.org/2000/svg"><path fill-rule="evenodd" clip-rule="evenodd" d="M24 12c0 6.627-5.373 12-12 12S0 18.627 0 12 5.373 0 12 0s12 5.373 12 12zM8.498 15.183a2.87 2.87 0 01-1.755-.504 1.72 1.72 0 01-.674-1.457 3.1 3.1 0 01.045-.486 30.7 30.7 0 01.332-1.558C6.854 9.528 7.908 8.7 9.606 8.7a3.14 3.14 0 011.243.234c.35.138.651.376.864.685.216.318.324.696.314 1.08a3.103 3.103 0 01-.045.478c-.09.535-.198 1.052-.324 1.558-.21.822-.573 1.438-1.09 1.845-.516.401-1.206.602-2.07.602zm.126-1.296c.311.007.616-.097.856-.298.263-.24.444-.558.513-.908a21.33 21.33 0 00.315-1.478c.024-.128.036-.257.036-.387 0-.547-.286-.819-.856-.819a1.31 1.31 0 00-.864.297c-.26.242-.437.561-.503.91-.109.4-.217.894-.325 1.477a1.876 1.876 0 00-.035.377c0 .551.287.829.863.829zm3.819 1.205a.192.192 0 01-.154-.063.222.222 0 01-.027-.16l1.243-5.853a.254.254 0 01.098-.162.274.274 0 01.171-.063h2.395a2.787 2.787 0 011.603.414c.401.263.633.718.612 1.198 0 .157-.02.314-.054.468a2.441 2.441 0 01-.908 1.53c-.45.33-1.069.496-1.856.496h-1.215l-.413 1.971a.254.254 0 01-.099.162.27.27 0 01-.17.062h-1.226zm3.187-3.438a1.06 1.06 0 00.656-.207.968.968 0 00.378-.594c.018-.088.026-.179.028-.27a.498.498 0 00-.154-.395.76.76 0 00-.521-.144h-1.08l-.342 1.612 1.034-.002z" fill="#FF0420"/><path fill-rule="evenodd" clip-rule="evenodd" d="M6.743 14.68a2.87 2.87 0 001.755.503c.864 0 1.554-.2 2.07-.602.517-.407.88-1.023 1.09-1.845.126-.506.234-1.023.324-1.558.028-.16.042-.319.045-.478a1.836 1.836 0 00-.314-1.08 1.885 1.885 0 00-.864-.685 3.14 3.14 0 00-1.243-.234c-1.698 0-2.752.826-3.16 2.477a30.7 30.7 0 00-.332 1.558 3.1 3.1 0 00-.045.486 1.72 1.72 0 00.674 1.457zm2.737-1.09c-.24.2-.545.304-.856.296-.576 0-.863-.277-.863-.828a1.876 1.876 0 01.035-.377c.108-.583.216-1.076.325-1.478.066-.348.243-.667.503-.909a1.31 1.31 0 01.864-.297c.57 0 .856.272.856.819 0 .13-.012.26-.036.387-.07.421-.177.913-.315 1.478a1.67 1.67 0 01-.513.909zm2.81 1.44a.19.19 0 00.153.062h1.225a.27.27 0 00.171-.063.254.254 0 00.099-.16l.413-1.972h1.215c.787 0 1.405-.165 1.856-.496a2.44 2.44 0 00.908-1.53c.034-.154.054-.311.054-.468.021-.48-.21-.935-.612-1.198a2.787 2.787 0 00-1.603-.414h-2.395a.274.274 0 00-.17.063.254.254 0 00-.1.162l-1.242 5.852a.222.222 0 00.027.162zm3.997-3.583c-.191.14-.421.213-.657.207l-1.035.002.342-1.612h1.08a.76.76 0 01.521.144.498.498 0 01.154.396c-.002.09-.01.18-.028.27a.968.968 0 01-.378.593z" fill="#fff"/></svg>