<svg width="25" height="24" fill="none" xmlns="http://www.w3.org/2000/svg"><g clip-path="url(#clip0)"><path d="M12.666 24c6.628 0 12-5.373 12-12s-5.372-12-12-12c-6.627 0-12 5.373-12 12s5.373 12 12 12z" fill="#8247E5"/><path d="M16.638 9.433a1.016 1.016 0 00-.978 0l-2.245 1.283-1.526.838-2.245 1.283a1.015 1.015 0 01-.979 0l-1.784-1.004c-.288-.168-.49-.475-.49-.81V9.042a.9.9 0 01.49-.81l1.756-.976c.288-.168.662-.168.978 0l1.756.977c.288.167.49.474.49.809v1.284l1.525-.866V8.177a.9.9 0 00-.49-.81L9.645 5.526a1.016 1.016 0 00-.979 0l-3.31 1.841a.9.9 0 00-.489.81v3.711a.9.9 0 00.49.81l3.31 1.841c.287.168.661.168.978 0l2.245-1.255 1.526-.865 2.245-1.256c.287-.168.662-.168.978 0l1.756.976c.288.168.49.475.49.81v1.981a.9.9 0 01-.49.81l-1.756 1.004a1.015 1.015 0 01-.978 0l-1.756-.976c-.288-.168-.49-.475-.49-.81v-1.284l-1.525.866v1.283a.9.9 0 00.49.81l3.31 1.841c.287.168.661.168.978 0l3.31-1.841c.288-.168.49-.475.49-.81v-3.711a.9.9 0 00-.49-.81l-3.339-1.87z" fill="#fff"/></g><defs><clipPath id="clip0"><path fill="#fff" transform="translate(.667)" d="M0 0h24v24H0z"/></clipPath></defs></svg>