<svg width="24" height="24" fill="none" xmlns="http://www.w3.org/2000/svg"><g clip-path="url(#clip0)"><path d="M6.167 2.917l15.5 10.583-3.834 5.667L2.334 8.5l3.834-5.583z" fill="url(#paint0_linear)"/><path d="M21.666 13.5c-1.333 1.917-5.833 1.167-10.083-1.833C7.25 8.75 4.917 4.833 6.167 2.917 7.5 1 12 1.75 16.25 4.75c4.333 2.833 6.666 6.833 5.416 8.75z" fill="url(#paint1_linear)"/><path d="M17.833 19.083C16.5 21 12 20.25 7.75 17.25s-6.667-6.833-5.334-8.833C3.75 6.5 8.25 7.25 12.5 10.25s6.583 6.917 5.333 8.833z" fill="url(#paint2_linear)"/><path d="M21.666 13.5l-3.833 5.667C16.5 21.083 12 20.25 7.75 17.333A25.112 25.112 0 015.417 15.5C6 15.417 6.75 15.083 7.5 14.25c1.333-1.417 2-1.75 2.583-1.667.583 0 1.25.584 2.333 2C13.5 16 15 16.417 15.916 15.667c.084-.084.167-.084.25-.167.75-.583 1-.833 2.417-3.5.334-.667 1.5-1.75 3.084-1.25.416 1.083.416 2 0 2.75z" fill="#0E0F23"/><path fill-rule="evenodd" clip-rule="evenodd" d="M21.083 13.167c-1.166 1.666-5.25.833-9.166-1.917C7.917 8.5 5.583 5 6.75 3.333 7.917 1.667 12 2.5 15.917 5.25c3.916 2.75 6.25 6.25 5.166 7.917zm-3.666-2.5c-.584.833-2.584.416-4.584-.917-1.916-1.333-3.083-3.083-2.5-3.917.584-.833 2.584-.416 4.584.917 1.916 1.333 3.083 3.083 2.5 3.917z" fill="#fff"/><path d="M5.833 4.833c0-.083-.083-.166-.166-.083-.084.083-.167.083-.167.167.083.25.167.416.167.583 0 .083.083.167.166.083.084 0 .167-.083.084-.166 0-.167 0-.334-.084-.584zm.417 1.334c0-.084-.083-.167-.167-.084C6 6.167 6 6.167 6 6.25c.917 2.083 2.833 4.333 5.333 6 .084.083.167 0 .25 0 .084-.083 0-.167 0-.25C9 10.333 7.167 8.167 6.25 6.167zm10.083 8.166c-.083 0-.166 0-.166.084 0 .083 0 .166.083.166.25.084.583.167.833.25.084 0 .167 0 .167-.083s0-.167-.084-.167c-.25-.083-.583-.166-.833-.25zm1.5.334a.18.18 0 00-.166.166.18.18 0 00.166.167c.667.083 1.417.167 2 .083a.18.18 0 00.167-.166.18.18 0 00-.167-.167c-.666.083-1.333 0-2-.083z" fill="#fff"/></g><path d="M8 22.896a4.896 4.896 0 100-9.792 4.896 4.896 0 000 9.792z" fill="#F4F4F4"/><path d="M5.862 18.064l2.162 1.255.36-2.665-2.522 1.41z" fill="#393939"/><path d="M8.024 14.54L7 18.15l3.186-.088-2.162-3.523z" fill="#343434"/><path d="M8.024 14.54l-2.162 3.523 2.162-.966V14.54zm0 6.92l.053-1.71-2.215-1.284 2.162 2.993z" fill="#8C8C8C"/><path d="M8.024 19.721v1.738l2.163-2.993-2.163 1.255z" fill="#3C3C3B"/><path d="M8.024 19.319l2.162-1.256-2.162-.965v2.22z" fill="#141414"/><path d="M16.267 23a5 5 0 100-10 5 5 0 000 10z" fill="#26A17B"/><path d="M16.832 18.448a9.95 9.95 0 01-.61.012c-.317 0-.54-.009-.619-.012-1.22-.053-2.132-.266-2.132-.52 0-.255.912-.468 2.132-.521v.83c.08.006.309.02.625.02.38 0 .569-.017.604-.02v-.83c1.219.055 2.127.267 2.127.521s-.909.466-2.127.521zm0-1.127v-.743h1.7v-1.132h-4.628v1.132h1.7v.743c-1.382.064-2.42.337-2.42.665s1.039.601 2.42.666v2.38h1.23v-2.38c1.378-.064 2.416-.337 2.416-.665 0-.327-1.038-.601-2.417-.665" fill="#fff"/><defs><linearGradient id="paint0_linear" x1="9.204" y1="1.412" x2="12.277" y2="11.967" gradientUnits="userSpaceOnUse"><stop stop-color="#03B8FF"/><stop offset="1" stop-color="#FA52A0"/></linearGradient><linearGradient id="paint1_linear" x1="11.735" y1=".675" x2="14.809" y2="11.23" gradientUnits="userSpaceOnUse"><stop stop-color="#03B8FF"/><stop offset="1" stop-color="#FA52A0"/></linearGradient><linearGradient id="paint2_linear" x1="6.68" y1="2.147" x2="9.754" y2="12.702" gradientUnits="userSpaceOnUse"><stop stop-color="#03B8FF"/><stop offset="1" stop-color="#FA52A0"/></linearGradient><clipPath id="clip0"><path fill="#fff" transform="translate(2 1)" d="M0 0h20v20H0z"/></clipPath></defs></svg>