<svg width="24" height="24" fill="none" xmlns="http://www.w3.org/2000/svg"><path d="M12 23.75a11.75 11.75 0 100-23.5 11.75 11.75 0 000 23.5z" fill="#2775C9"/><path d="M15.236 13.867c0-1.713-1.043-2.291-3.06-2.568-1.491-.215-1.778-.565-1.778-1.26 0-.696.505-1.129 1.47-1.129.878 0 1.385.306 1.593 1.014a.375.375 0 00.355.271h.77a.341.341 0 00.346-.399c-.245-1.118-.999-1.792-2.181-2.002v-1.18a.367.367 0 00-.367-.367h-.735a.367.367 0 00-.367.367v1.138c-1.469.206-2.396 1.175-2.396 2.419 0 1.608.979 2.232 3.025 2.509 1.393.228 1.79.529 1.79 1.32 0 .79-.674 1.321-1.623 1.321-1.28 0-1.714-.56-1.858-1.287a.372.372 0 00-.36-.299h-.837a.343.343 0 00-.34.399c.212 1.224.998 2.12 2.6 2.335v1.16a.368.368 0 00.366.368h.735a.368.368 0 00.367-.367v-1.16c1.518-.24 2.485-1.288 2.485-2.603z" fill="#fff"/><path d="M9.498 19.02a7.344 7.344 0 010-13.796.529.529 0 00.316-.463v-.685a.347.347 0 00-.49-.35 8.812 8.812 0 000 16.792.347.347 0 00.49-.35v-.685a.529.529 0 00-.316-.463zM14.71 3.726a.348.348 0 00-.49.35v.685a.529.529 0 00.316.463 7.344 7.344 0 010 13.796.49.49 0 00-.316.463v.685a.348.348 0 00.49.35 8.813 8.813 0 000-16.792z" fill="#fff"/></svg>