<svg width="24" height="24" fill="none" xmlns="http://www.w3.org/2000/svg"><path d="M23.5 12c0 6.351-5.149 11.5-11.5 11.5S.5 18.351.5 12 5.649.5 12 .5 23.5 5.649 23.5 12z" fill="#F9FAFB" stroke="#8C8C8C"/><path d="M6.76 12.156l5.3 3.076.883-6.53-6.183 3.454z" fill="#393939"/><path d="M12.06 3.518L9.549 12.37l7.81-.214-5.3-8.638z" fill="#343434"/><path d="M12.06 3.518l-5.3 8.638 5.3-2.368v-6.27zm0 16.961l.13-4.19-5.43-3.146 5.3 7.336z" fill="#8C8C8C"/><path d="M12.059 16.219v4.26l5.302-7.336-5.302 3.076z" fill="#3C3C3B"/><path d="M12.059 15.232l5.299-3.076-5.3-2.367v5.444z" fill="#141414"/></svg>