<svg width="24" height="24" viewBox="0 0 24 24" fill="none" xmlns="http://www.w3.org/2000/svg">
<path d="M22.7384 0.943604L13.4312 7.85618L15.1523 3.77786L22.7384 0.943604Z" fill="#E2761B" stroke="#E2761B" stroke-width="0.101334" stroke-linecap="round" stroke-linejoin="round"/>
<path d="M1.25244 0.943604L10.4848 7.92166L8.84783 3.77786L1.25244 0.943604Z" fill="#E4761B" stroke="#E4761B" stroke-width="0.101334" stroke-linecap="round" stroke-linejoin="round"/>
<path d="M19.3899 16.9669L16.9111 20.7646L22.2149 22.2238L23.7395 17.0511L19.3899 16.9669Z" fill="#E4761B" stroke="#E4761B" stroke-width="0.101334" stroke-linecap="round" stroke-linejoin="round"/>
<path d="M0.27002 17.0511L1.78536 22.2238L7.08905 20.7646L4.61025 16.9669L0.27002 17.0511Z" fill="#E4761B" stroke="#E4761B" stroke-width="0.101334" stroke-linecap="round" stroke-linejoin="round"/>
<path d="M6.78945 10.5502L5.31152 12.7858L10.5778 13.0196L10.3907 7.36047L6.78945 10.5502Z" fill="#E4761B" stroke="#E4761B" stroke-width="0.101334" stroke-linecap="round" stroke-linejoin="round"/>
<path d="M17.2008 10.5501L13.5528 7.29492L13.4312 13.0196L18.688 12.7857L17.2008 10.5501Z" fill="#E4761B" stroke="#E4761B" stroke-width="0.101334" stroke-linecap="round" stroke-linejoin="round"/>
<path d="M7.08887 20.7646L10.2505 19.2212L7.51915 17.0885L7.08887 20.7646Z" fill="#E4761B" stroke="#E4761B" stroke-width="0.101334" stroke-linecap="round" stroke-linejoin="round"/>
<path d="M13.7397 19.2212L16.9107 20.7646L16.4711 17.0885L13.7397 19.2212Z" fill="#E4761B" stroke="#E4761B" stroke-width="0.101334" stroke-linecap="round" stroke-linejoin="round"/>
<path d="M16.9107 20.7647L13.7397 19.2213L13.9923 21.2885L13.9642 22.1584L16.9107 20.7647Z" fill="#D7C1B3" stroke="#D7C1B3" stroke-width="0.101334" stroke-linecap="round" stroke-linejoin="round"/>
<path d="M7.08887 20.7647L10.0354 22.1584L10.0167 21.2885L10.2505 19.2213L7.08887 20.7647Z" fill="#D7C1B3" stroke="#D7C1B3" stroke-width="0.101334" stroke-linecap="round" stroke-linejoin="round"/>
<path d="M10.0822 15.7229L7.44434 14.9465L9.30575 14.0953L10.0822 15.7229Z" fill="#233447" stroke="#233447" stroke-width="0.101334" stroke-linecap="round" stroke-linejoin="round"/>
<path d="M13.9082 15.7229L14.6846 14.0953L16.5554 14.9465L13.9082 15.7229Z" fill="#233447" stroke="#233447" stroke-width="0.101334" stroke-linecap="round" stroke-linejoin="round"/>
<path d="M7.08915 20.7646L7.53814 16.9669L4.61035 17.0511L7.08915 20.7646Z" fill="#CD6116" stroke="#CD6116" stroke-width="0.101334" stroke-linecap="round" stroke-linejoin="round"/>
<path d="M16.4619 16.9669L16.9109 20.7646L19.3897 17.0511L16.4619 16.9669Z" fill="#CD6116" stroke="#CD6116" stroke-width="0.101334" stroke-linecap="round" stroke-linejoin="round"/>
<path d="M18.688 12.7856L13.4312 13.0196L13.9176 15.7228L14.694 14.0952L16.5647 14.9464L18.688 12.7856Z" fill="#CD6116" stroke="#CD6116" stroke-width="0.101334" stroke-linecap="round" stroke-linejoin="round"/>
<path d="M7.44423 14.9464L9.31504 14.0952L10.082 15.7228L10.5778 13.0196L5.31152 12.7856L7.44423 14.9464Z" fill="#CD6116" stroke="#CD6116" stroke-width="0.101334" stroke-linecap="round" stroke-linejoin="round"/>
<path d="M5.31152 12.7856L7.51906 17.0885L7.44423 14.9464L5.31152 12.7856Z" fill="#E4751F" stroke="#E4751F" stroke-width="0.101334" stroke-linecap="round" stroke-linejoin="round"/>
<path d="M16.5647 14.9464L16.4712 17.0885L18.6881 12.7856L16.5647 14.9464Z" fill="#E4751F" stroke="#E4751F" stroke-width="0.101334" stroke-linecap="round" stroke-linejoin="round"/>
<path d="M10.5783 13.0197L10.0825 15.7229L10.6999 18.9126L10.8402 14.7127L10.5783 13.0197Z" fill="#E4751F" stroke="#E4751F" stroke-width="0.101334" stroke-linecap="round" stroke-linejoin="round"/>
<path d="M13.4313 13.0197L13.1787 14.7033L13.291 18.9126L13.9177 15.7229L13.4313 13.0197Z" fill="#E4751F" stroke="#E4751F" stroke-width="0.101334" stroke-linecap="round" stroke-linejoin="round"/>
<path d="M13.9172 15.7229L13.2905 18.9126L13.7396 19.2213L16.4709 17.0886L16.5644 14.9465L13.9172 15.7229Z" fill="#F6851B" stroke="#F6851B" stroke-width="0.101334" stroke-linecap="round" stroke-linejoin="round"/>
<path d="M7.44434 14.9465L7.51917 17.0886L10.2506 19.2213L10.6995 18.9126L10.0822 15.7229L7.44434 14.9465Z" fill="#F6851B" stroke="#F6851B" stroke-width="0.101334" stroke-linecap="round" stroke-linejoin="round"/>
<path d="M13.964 22.1584L13.9921 21.2885L13.7583 21.0827H10.2318L10.0167 21.2885L10.0354 22.1584L7.08887 20.7646L8.11779 21.6065L10.2037 23.0564H13.7863L15.8815 21.6065L16.9105 20.7646L13.964 22.1584Z" fill="#C0AD9E" stroke="#C0AD9E" stroke-width="0.101334" stroke-linecap="round" stroke-linejoin="round"/>
<path d="M13.7395 19.2213L13.2905 18.9126H10.6995L10.2504 19.2213L10.0166 21.2885L10.2317 21.0828H13.7582L13.992 21.2885L13.7395 19.2213Z" fill="#161616" stroke="#161616" stroke-width="0.101334" stroke-linecap="round" stroke-linejoin="round"/>
<path d="M23.1311 8.30518L23.9262 4.48876L22.7382 0.943604L13.7397 7.62233L17.2007 10.5501L22.0929 11.9813L23.1779 10.7185L22.7102 10.3817L23.4585 9.69894L22.8785 9.2499L23.6269 8.67934L23.1311 8.30518Z" fill="#763D16" stroke="#763D16" stroke-width="0.101334" stroke-linecap="round" stroke-linejoin="round"/>
<path d="M0.0737305 4.48876L0.868817 8.30518L0.363703 8.67934L1.11202 9.2499L0.541428 9.69894L1.28974 10.3817L0.822049 10.7185L1.89775 11.9813L6.78987 10.5501L10.2508 7.62233L1.25233 0.943604L0.0737305 4.48876Z" fill="#763D16" stroke="#763D16" stroke-width="0.101334" stroke-linecap="round" stroke-linejoin="round"/>
<path d="M22.0929 11.9813L17.2008 10.5502L18.6881 12.7857L16.4712 17.0886L19.3896 17.0511H23.7392L22.0929 11.9813Z" fill="#F6851B" stroke="#F6851B" stroke-width="0.101334" stroke-linecap="round" stroke-linejoin="round"/>
<path d="M6.78973 10.5502L1.89761 11.9813L0.27002 17.0511H4.61025L7.51933 17.0886L5.31181 12.7857L6.78973 10.5502Z" fill="#F6851B" stroke="#F6851B" stroke-width="0.101334" stroke-linecap="round" stroke-linejoin="round"/>
<path d="M13.4311 13.0196L13.7398 7.62231L15.1616 3.77783H8.84766L10.2508 7.62231L10.5781 13.0196L10.6904 14.722L10.6997 18.9125H13.2908L13.3095 14.722L13.4311 13.0196Z" fill="#F6851B" stroke="#F6851B" stroke-width="0.101334" stroke-linecap="round" stroke-linejoin="round"/>
</svg>
