<svg width="35" height="22" viewBox="0 0 35 22" fill="none" xmlns="http://www.w3.org/2000/svg">
    <path
        d="M7.19775 4.75742C12.7037 -0.633333 21.6305 -0.633333 27.1365 4.75742L27.7991 5.40621C28.0744 5.67574 28.0744 6.11275 27.7991 6.38229L25.5323 8.60166C25.3947 8.73642 25.1715 8.73642 25.0338 8.60166L24.122 7.70885C20.2809 3.94812 14.0533 3.94812 10.2122 7.70885L9.23568 8.66497C9.09804 8.79974 8.87486 8.79974 8.73722 8.66497L6.47044 6.4456C6.19514 6.17607 6.19514 5.73906 6.47044 5.46952L7.19775 4.75742ZM31.8244 9.34731L33.8418 11.3226C34.1171 11.5921 34.1171 12.0291 33.8418 12.2986L24.745 21.2053C24.4697 21.4748 24.0234 21.4748 23.7481 21.2053C23.7481 21.2053 23.7481 21.2053 23.7481 21.2053L17.2918 14.884C17.2229 14.8166 17.1114 14.8166 17.0425 14.884C17.0425 14.884 17.0425 14.884 17.0425 14.884L10.5863 21.2053C10.311 21.4748 9.86469 21.4748 9.58939 21.2053C9.58939 21.2053 9.58939 21.2053 9.58939 21.2053L0.492361 12.2985C0.217065 12.029 0.217065 11.592 0.492361 11.3224L2.5098 9.34719C2.7851 9.07765 3.23144 9.07765 3.50674 9.34719L9.96317 15.6686C10.032 15.736 10.1436 15.736 10.2124 15.6686C10.2124 15.6686 10.2124 15.6686 10.2124 15.6686L16.6685 9.34719C16.9438 9.07765 17.3901 9.07764 17.6654 9.34717C17.6655 9.34717 17.6655 9.34718 17.6655 9.34718L24.1219 15.6686C24.1907 15.736 24.3023 15.736 24.3711 15.6686L30.8274 9.34731C31.1027 9.07777 31.5491 9.07777 31.8244 9.34731Z"
        fill="#3B99FC" />
</svg>