<svg width="24" height="24" viewBox="0 0 24 24" fill="none" xmlns="http://www.w3.org/2000/svg">
  <ellipse cx="12.0086" cy="12.7273" rx="10.9915" ry="11.2728" fill="#418ACA"/>
  <path d="M5.72545 7.82558C3.61509 9.12885 3.7399 11.4523 4.06609 12.451C6.95934 9.72813 11.181 10.211 12.9302 10.7929C12.4763 10.0016 11.4363 9.31891 10.973 9.07649C17.1906 8.96012 19.4825 13.4886 19.8512 15.7674C20.5276 19.9474 17.9125 22.2602 17.9125 22.2602C20.7313 20.5256 22.1418 17.9164 22.6168 15.7674C22.6963 12.5209 20.3902 10.051 19.2272 9.22194C20.4639 9.23358 21.8037 9.8474 22.319 10.1529C19.9136 6.96448 16.1732 6.01224 14.6037 5.93466C16.7821 4.11939 17.2417 1.23162 17.1991 0.0146484C15.656 2.78411 13.8426 4.18436 13.1287 4.5383C13.0493 3.68884 12.7742 3.31163 12.6465 3.2292C12.0452 4.54411 9.89983 5.47406 8.90233 5.77466C8.5194 5.89006 8.02301 6.34194 8.1081 6.96739C8.20067 7.64774 8.70377 7.91285 9.01579 7.95648C8.42579 8.06121 8.1081 7.91285 8.02301 7.82558C6.81749 9.00376 6.27856 8.96012 5.86726 8.84376C5.53823 8.75067 5.63562 8.12618 5.72545 7.82558Z" fill="white"/>
  <path d="M5.64049 9.32363C5.18664 9.31199 4.89353 10.0267 4.80371 10.3855C5.45044 9.68726 5.68777 9.9006 5.7256 10.0945C6.07734 9.53599 5.81542 9.34787 5.64049 9.32363Z" fill="#418ACA"/>
  <path d="M4.83197 21.3672C1.64374 18.8072 0.950649 14.6181 1.00265 12.829C2.54854 16.7126 5.66875 18.6472 8.00887 18.5599C10.349 18.4726 11.824 17.6872 13.072 16.0872C14.0705 14.8072 13.3084 13.2605 12.7601 12.6399C14.4847 14.2341 14.0743 16.0435 13.6961 16.7563C14.0364 16.6632 14.4809 16.2278 14.6605 16.0435C14.6719 16.5323 14.5234 17.0181 14.4477 17.1781C14.8789 17.0035 15.3413 16.4557 15.5398 16.2035C15.866 17.0617 15.5162 18.6326 15.2704 19.0399C14.1783 21.3235 10.9163 22.9817 8.6329 22.8654C6.80619 22.7723 5.33782 21.8278 4.83197 21.3672Z" fill="#161F42"/>
  <path d="M19.2412 9.22172C18.0499 8.19771 16.2676 7.78656 15.5254 7.70898C17.2727 7.70898 18.9387 8.39747 19.5532 8.74171L19.2412 8.08717C20.2056 8.52935 21.6806 9.5999 22.3188 10.1526C22.1061 10.0217 20.5035 9.25081 19.2412 9.22172Z" fill="#161F42"/>
  <path d="M12.9585 11.7382C9.24832 10.1091 5.79629 11.3454 4.61914 11.9854C7.172 9.93452 10.9256 10.2497 12.377 10.6327C12.8195 11.0982 12.9112 11.5685 12.9585 11.7382Z" fill="#161F42"/>
  <path d="M13.058 5.73092C12.9559 6.40583 12.4293 7.04002 12.1787 7.27275C16.3427 5.91129 17.2797 1.85697 17.2277 0C16.8079 1.57091 15.852 2.89455 15.4265 3.36001L16.1782 3.15637C15.418 4.58765 13.7813 5.4691 13.058 5.73092Z" fill="#161F42"/>
  <path d="M5.61212 9.55633C5.24905 9.55633 4.91244 10.1333 4.80371 10.3854C5.04198 9.52431 5.45611 9.27051 5.66885 9.3236C6.08866 9.42833 5.88632 9.88116 5.72558 10.0945C5.84377 9.9151 5.9752 9.55633 5.61212 9.55633Z" fill="#161F42"/>
  <path d="M9.75359 6.58916C9.14659 6.93156 9.2572 7.33098 9.28557 7.47643C11.169 7.55789 11.8384 6.21098 11.9377 5.52734C10.6896 6.42916 10.6045 6.10916 9.75359 6.58916Z" fill="#418ACA"/>
  <path d="M7.4131 13.3963C6.81743 13.4351 5.42471 13.2072 4.61914 11.9854C5.87666 11.2096 9.29938 10.0654 12.9301 11.6945C12.9348 11.583 12.8195 11.2116 12.3203 10.6181L12.9301 10.7781C12.8166 10.5987 12.4876 10.1643 12.0792 9.86176C12.9396 9.84721 15.2759 10.1934 16.887 11.6945C18.901 13.5709 21.343 17.709 18.1944 21.9708C17.0713 23.4166 10.0885 25.9929 4.79606 21.3487C4.76839 21.3251 4.74249 21.3021 4.71842 21.28C4.74426 21.3031 4.77014 21.326 4.79606 21.3487C5.50762 21.9571 7.39438 23.0334 9.6114 22.8654C12.4905 22.6473 17.9507 20.3345 16.1354 15.0981C15.9935 15.5733 15.4149 16.6981 14.4051 17.2218C14.7691 16.1454 14.9469 13.6698 12.5755 12.5527C9.61139 11.1563 6.03739 11.8254 7.4131 13.3963Z" fill="#262F71"/>
  <path d="M13.6533 16.8144C14.4929 14.9526 13.4169 13.2411 12.7456 12.6399C14.5383 13.5243 14.7312 15.3066 14.6177 16.0872C14.5156 16.285 13.9086 16.6835 13.6533 16.8144Z" fill="#0E1F66"/>
  <path d="M14.4198 20.2327C15.838 18.7781 15.7435 16.9357 15.526 16.2327C15.7643 15.9185 16.0555 15.2969 16.1642 15.0254C17.001 17.3672 16.1311 19.2145 15.6395 19.84C13.4157 22.5745 10.1934 23.0836 8.32129 22.8363C10.704 22.8363 12.647 22.0509 14.4198 20.2327Z" fill="#0E1F66"/>
  <path d="M10.9871 6.10906C10.7374 7.03997 9.75318 7.41815 9.28516 7.47633C11.1147 7.5927 11.8238 6.23027 11.9373 5.5127C11.8238 5.66397 11.2565 5.9733 10.9871 6.10906Z" fill="#161F42"/>
  <path d="M17.6388 12.6691C15.9256 10.4 13.2092 9.85211 12.0651 9.86181C11.8155 9.62908 11.2709 9.2412 11.0298 9.07635C12.8121 8.84847 16.8667 9.43849 19.0713 13.4836C21.0144 17.0491 19.9815 19.9638 18.1946 21.971C20.4212 18.5674 19.7804 15.5055 17.6388 12.6691Z" fill="#161F42"/>
</svg>
