<svg width="24" height="24" viewBox="0 0 24 24" fill="none" xmlns="http://www.w3.org/2000/svg">
  <g clip-path="url(#clip0_170_7706)">
  <path d="M4.9999 2.30005L23.5999 15L18.9999 21.8L0.399902 9.00005L4.9999 2.30005Z" fill="url(#paint0_linear_170_7706)"/>
  <path d="M23.6003 15C22.0003 17.3 16.6003 16.4 11.5003 12.8C6.30032 9.29998 3.50032 4.59998 5.00032 2.29998C6.60032 -2.49147e-05 12.0003 0.899975 17.1003 4.49998C22.3003 7.89998 25.1003 12.7 23.6003 15Z" fill="url(#paint1_linear_170_7706)"/>
  <path d="M19.0001 21.7001C17.4001 24.0001 12.0001 23.1001 6.90013 19.5001C1.80013 15.9001 -1.09987 11.3001 0.50013 8.90007C2.10013 6.60007 7.50013 7.50007 12.6001 11.1001C17.7001 14.7001 20.5001 19.4001 19.0001 21.7001Z" fill="url(#paint2_linear_170_7706)"/>
  <path d="M23.6001 15L19.0001 21.8C17.4001 24.1 12.0001 23.1 6.9001 19.6C5.9001 18.9 5.0001 18.2 4.1001 17.4C4.8001 17.3 5.7001 16.9 6.6001 15.9C8.2001 14.2 9.0001 13.8 9.7001 13.9C10.4001 13.9 11.2001 14.6 12.5001 16.3C13.8001 18 15.6001 18.5 16.7001 17.6C16.8001 17.5 16.9001 17.5 17.0001 17.4C17.9001 16.7 18.2001 16.4 19.9001 13.2C20.3001 12.4 21.7001 11.1 23.6001 11.7C24.1001 13 24.1001 14.1 23.6001 15Z" fill="#0E0F23"/>
  <path fill-rule="evenodd" clip-rule="evenodd" d="M22.9003 14.6C21.5003 16.6 16.6003 15.6 11.9003 12.3C7.10027 9.00003 4.30027 4.80003 5.70027 2.80003C7.10027 0.800029 12.0003 1.80003 16.7003 5.10003C21.4003 8.40003 24.2003 12.6 22.9003 14.6ZM18.5003 11.6C17.8003 12.6 15.4003 12.1 13.0003 10.5C10.7003 8.90003 9.30027 6.80003 10.0003 5.80003C10.7003 4.80003 13.1003 5.30003 15.5003 6.90003C17.8003 8.50003 19.2003 10.6 18.5003 11.6Z" fill="white"/>
  <path d="M4.6002 4.59992C4.6002 4.49992 4.5002 4.39992 4.4002 4.49992C4.3002 4.59992 4.2002 4.59992 4.2002 4.69992C4.3002 4.99992 4.4002 5.19992 4.4002 5.39992C4.4002 5.49992 4.5002 5.59992 4.6002 5.49992C4.7002 5.49992 4.8002 5.39992 4.7002 5.29992C4.7002 5.09992 4.7002 4.89992 4.6002 4.59992Z" fill="white"/>
  <path d="M5.10029 6.20002C5.10029 6.10002 5.00029 6.00002 4.90029 6.10002C4.80029 6.20002 4.80029 6.20002 4.80029 6.30002C5.90029 8.80002 8.20029 11.5 11.2003 13.5C11.3003 13.6 11.4003 13.5 11.5003 13.5C11.6003 13.4 11.5003 13.3 11.5003 13.2C8.40029 11.2 6.20029 8.60002 5.10029 6.20002Z" fill="white"/>
  <path d="M17.2 16C17.1 16 17 16 17 16.1C17 16.2 17 16.3 17.1 16.3C17.4 16.4 17.8 16.5 18.1 16.6C18.2 16.6 18.3 16.6 18.3 16.5C18.3 16.4 18.3 16.3 18.2 16.3C17.9 16.2 17.5 16.1 17.2 16Z" fill="white"/>
  <path d="M19.0003 16.3999C18.9003 16.3999 18.8003 16.4999 18.8003 16.5999C18.8003 16.6999 18.9003 16.7999 19.0003 16.7999C19.8003 16.8999 20.7003 16.9999 21.4003 16.8999C21.5003 16.8999 21.6003 16.7999 21.6003 16.6999C21.6003 16.5999 21.5003 16.4999 21.4003 16.4999C20.6003 16.5999 19.8003 16.4999 19.0003 16.3999Z" fill="white"/>
  </g>
  <defs>
  <linearGradient id="paint0_linear_170_7706" x1="8.6441" y1="0.494349" x2="12.3327" y2="13.1605" gradientUnits="userSpaceOnUse">
  <stop stop-color="#03B8FF"/>
  <stop offset="1" stop-color="#FA52A0"/>
  </linearGradient>
  <linearGradient id="paint1_linear_170_7706" x1="11.6821" y1="-0.390425" x2="15.3708" y2="12.2759" gradientUnits="userSpaceOnUse">
  <stop stop-color="#03B8FF"/>
  <stop offset="1" stop-color="#FA52A0"/>
  </linearGradient>
  <linearGradient id="paint2_linear_170_7706" x1="5.61613" y1="1.37617" x2="9.30483" y2="14.0425" gradientUnits="userSpaceOnUse">
  <stop stop-color="#03B8FF"/>
  <stop offset="1" stop-color="#FA52A0"/>
  </linearGradient>
  <clipPath id="clip0_170_7706">
  <rect width="24" height="24" fill="white"/>
  </clipPath>
  </defs>
</svg>
