<svg width="24" height="24" viewBox="0 0 24 24" fill="none" xmlns="http://www.w3.org/2000/svg">
<path d="M12 23.5669C18.4893 23.5669 23.75 18.3605 23.75 11.9381C23.75 5.51562 18.4893 0.309204 12 0.309204C5.51065 0.309204 0.25 5.51562 0.25 11.9381C0.25 18.3605 5.51065 23.5669 12 23.5669Z" fill="#F9FAFB"/>
<path d="M12 23.5669C18.4893 23.5669 23.75 18.3605 23.75 11.9381C23.75 5.51562 18.4893 0.309204 12 0.309204C5.51065 0.309204 0.25 5.51562 0.25 11.9381C0.25 18.3605 5.51065 23.5669 12 23.5669Z" fill="#6F074C"/>
<path d="M11.999 16C13.0599 16 14.0773 15.5786 14.8275 14.8284C15.5776 14.0783 15.999 13.0609 15.999 12C15.999 10.9391 15.5776 9.92172 14.8275 9.17157C14.0773 8.42143 13.0599 8 11.999 8C10.9382 8 9.92074 8.42143 9.1706 9.17157C8.42045 9.92172 7.99902 10.9391 7.99902 12C7.99902 13.0609 8.42045 14.0783 9.1706 14.8284C9.92074 15.5786 10.9382 16 11.999 16ZM11.999 7C12.6556 7 13.3058 7.12933 13.9124 7.3806C14.5191 7.63188 15.0703 8.00017 15.5346 8.46447C15.9988 8.92876 16.3671 9.47995 16.6184 10.0866C16.8697 10.6932 16.999 11.3434 16.999 12C16.999 13.3261 16.4722 14.5979 15.5346 15.5355C14.5969 16.4732 13.3251 17 11.999 17C9.23402 17 6.99902 14.75 6.99902 12C6.99902 10.6739 7.52581 9.40215 8.46349 8.46447C9.40117 7.52678 10.6729 7 11.999 7ZM12.249 9.5V12.125L14.499 13.46L14.124 14.075L11.499 12.5V9.5H12.249Z" fill="white"/>
</svg>
