<svg width="18" height="14" viewBox="0 0 18 14" fill="none" xmlns="http://www.w3.org/2000/svg">
<path d="M3.13979 6.85997L0.359785 9.64997C0.169785 9.84997 0.169785 10.16 0.359785 10.36L3.13979 13.15C3.44978 13.47 3.98978 13.24 3.98978 12.8V11H9.99979C10.5498 11 10.9998 10.55 10.9998 9.99997C10.9998 9.44997 10.5498 8.99997 9.99979 8.99997H3.98978V7.20997C3.98978 6.75997 3.44978 6.53997 3.13979 6.85997ZM17.6498 3.64997L14.8698 0.859966C14.5598 0.539966 14.0198 0.769966 14.0198 1.20997V2.99997H7.99979C7.44979 2.99997 6.99979 3.44997 6.99979 3.99997C6.99979 4.54997 7.44979 4.99997 7.99979 4.99997H14.0098V6.78997C14.0098 7.23997 14.5498 7.45997 14.8598 7.13997L17.6398 4.34997C17.8398 4.15997 17.8398 3.83997 17.6498 3.64997Z" fill="white" fill-opacity="1"/>
</svg>
