<svg width="16" height="16" viewBox="0 0 16 16" fill="none" xmlns="http://www.w3.org/2000/svg">
  <path d="M8 11.333a.669.669 0 0 1-.667-.666V8c0-.367.3-.667.667-.667.367 0 .667.3.667.667v2.667c0 .366-.3.666-.667.666zm.007 3.334c3.68 0 6.66-2.987 6.66-6.667 0-3.68-2.98-6.667-6.66-6.667A6.67 6.67 0 0 0 1.333 8a6.67 6.67 0 0 0 6.674 6.667zM8 2.667A5.332 5.332 0 0 1 13.333 8 5.332 5.332 0 0 1 8 13.333 5.332 5.332 0 0 1 2.667 8 5.332 5.332 0 0 1 8 2.667zm-.667 2h1.334V6H7.333V4.667z" fill="#A77DFF"/>
</svg>
