<svg
  viewBox="0 0 24 14"
  fill="currentColor"
  xmlns="http://www.w3.org/2000/svg"
>
  <path d="M13.5828 7.07385C13.5828 10.8322 10.5718 13.8792 6.85746 13.8792C3.14309 13.8792 0.132324 10.8332 0.132324 7.07385C0.132324 3.31448 3.14332 0.268677 6.85746 0.268677C10.5716 0.268677 13.5828 3.3154 13.5828 7.07385Z" />
  <path d="M20.9607 7.07337C20.9607 10.6115 19.4551 13.4794 17.598 13.4794C15.741 13.4794 14.2354 10.6106 14.2354 7.07337C14.2354 3.53621 15.741 0.667358 17.598 0.667358C19.4551 0.667358 20.9607 3.53621 20.9607 7.07337Z" />
  <path d="M23.9782 7.0733C23.9782 10.2432 23.4487 12.8128 22.7955 12.8128C22.1424 12.8128 21.6128 10.2423 21.6128 7.0733C21.6128 3.90423 22.1424 1.33374 22.7958 1.33374C23.4491 1.33374 23.9782 3.90354 23.9782 7.0733Z" />
</svg>