<svg
  viewBox="0 0 24 24"
  fill="currentColor"
  xmlns="http://www.w3.org/2000/svg"
>
  <path
    fill-rule="evenodd"
    clip-rule="evenodd"
    d="M23.9969 12.0029C23.9969 18.6271 18.6269 23.997 12.0028 23.997C5.3787 23.997 0.00878906 18.6271 0.00878906 12.0029C0.00878906 5.37882 5.3787 0.00891113 12.0028 0.00891113C18.6269 0.00891113 23.9969 5.37882 23.9969 12.0029ZM18.1862 10.3154C19.1551 10.2826 19.9661 11.0369 20.0018 12.0029C20.0138 12.6766 19.6351 13.2968 19.0329 13.5979C19.0448 13.7738 19.0448 13.9497 19.0329 14.1256C19.0329 16.8148 15.9025 18.9971 12.0416 18.9971C8.18072 18.9971 5.05029 16.8118 5.05029 14.1256C5.03836 13.9497 5.03836 13.7738 5.05029 13.5979C4.87439 13.5204 4.71638 13.4101 4.57923 13.2819C3.87265 12.62 3.83985 11.5109 4.50172 10.8073C5.16358 10.1007 6.27265 10.068 6.97625 10.7298C8.3596 9.79367 9.98445 9.28088 11.654 9.25404L12.5395 5.09206V5.0861C12.5842 4.88337 12.784 4.75815 12.9837 4.80287L15.9233 5.3902C16.1112 5.06225 16.451 4.84163 16.8297 4.80287C17.4885 4.73132 18.0789 5.20834 18.1504 5.86722C18.222 6.5261 17.7449 7.11641 17.0861 7.18796C16.4272 7.25951 15.8369 6.7825 15.7653 6.12361L13.1984 5.58399L12.4202 9.32559C14.0689 9.36137 15.6729 9.87118 17.0384 10.8014C17.3484 10.5062 17.7569 10.3303 18.1862 10.3154ZM9.20929 12.0029C8.54743 12.0029 8.0078 12.5425 8.0078 13.2043C8.0078 13.8662 8.54445 14.3999 9.20929 14.4058C9.87116 14.4058 10.4108 13.8662 10.4108 13.2043C10.4108 12.5425 9.87116 12.0029 9.20929 12.0029ZM12.0118 17.4259C13.0791 17.4707 14.1226 17.1427 14.9753 16.5017V16.5494C15.1064 16.4212 15.1094 16.2066 14.9812 16.0754C14.853 15.9442 14.6384 15.9412 14.5072 16.0694C13.7767 16.5912 12.8943 16.8476 11.9999 16.7999C11.1054 16.8416 10.2259 16.5733 9.50445 16.0456C9.38221 15.9472 9.21228 15.9472 9.09302 16.0456C8.95588 16.1589 8.93501 16.3646 9.0483 16.5017C9.90097 17.1427 10.9444 17.4707 12.0118 17.4259ZM13.5591 13.2461C13.5591 13.9079 14.0987 14.4476 14.7606 14.4476L14.7517 14.4923H14.8113C15.4731 14.4655 15.9889 13.9079 15.9621 13.2461C15.9621 12.5842 15.4225 12.0446 14.7606 12.0446C14.0987 12.0446 13.5591 12.5842 13.5591 13.2461Z"
  />
</svg>