<svg width="16" height="16" viewBox="0 0 16 16" fill="none" xmlns="http://www.w3.org/2000/svg">
<path d="M8 16C12.4183 16 16 12.4183 16 8C16 3.58172 12.4183 0 8 0C3.58172 0 0 3.58172 0 8C0 12.4183 3.58172 16 8 16Z" fill="#8247E5"/>
<path d="M10.6478 6.28835C10.4559 6.17673 10.2065 6.17673 9.99541 6.28835L8.49872 7.14416L7.48176 7.7023L5.98508 8.55812C5.79319 8.66974 5.54376 8.66974 5.33268 8.55812L4.14301 7.88835C3.95113 7.77672 3.81682 7.57207 3.81682 7.3488V6.02788C3.81682 5.80463 3.93194 5.59998 4.14301 5.48835L5.31349 4.83718C5.50537 4.72555 5.75482 4.72555 5.9659 4.83718L7.13637 5.48835C7.32826 5.59998 7.46257 5.80463 7.46257 6.02788V6.88369L8.47954 6.30694V5.45113C8.47954 5.22788 8.36441 5.02323 8.15335 4.9116L5.98508 3.68369C5.79319 3.57207 5.54376 3.57207 5.33268 3.68369L3.12604 4.9116C2.91496 5.02323 2.79984 5.22788 2.79984 5.45113V7.92555C2.79984 8.1488 2.91496 8.35346 3.12604 8.46508L5.33268 9.69299C5.52457 9.80463 5.77401 9.80463 5.98508 9.69299L7.48176 8.85579L8.49872 8.27904L9.99541 7.44183C10.1873 7.33021 10.4367 7.33021 10.6478 7.44183L11.8183 8.09299C12.0102 8.20463 12.1445 8.40927 12.1445 8.63254V9.95346C12.1445 10.1767 12.0294 10.3814 11.8183 10.493L10.6478 11.1628C10.4559 11.2744 10.2065 11.2744 9.99541 11.1628L8.82493 10.5116C8.63305 10.4 8.49872 10.1953 8.49872 9.97207V9.11626L7.48176 9.69299V10.5488C7.48176 10.7721 7.59688 10.9767 7.80796 11.0883L10.0146 12.3163C10.2065 12.4279 10.4559 12.4279 10.667 12.3163L12.8736 11.0883C13.0655 10.9767 13.1998 10.7721 13.1998 10.5488V8.0744C13.1998 7.85113 13.0847 7.64649 12.8736 7.53485L10.6478 6.28835Z" fill="white"/>
</svg>
